<svg preserveAspectRatio="none" width="100%" height="100%" overflow="visible" style="display: block;" viewBox="0 0 24.02 23.6336" fill="none" xmlns="http://www.w3.org/2000/svg">
<g id="Group">
<path id="Vector" d="M23.8898 9.81C23.7779 8.78645 23.5463 7.77956 23.1998 6.81C22.5271 5.01735 21.354 3.45549 19.8198 2.31C18.3084 1.17743 16.5251 0.463427 14.6498 0.24C14.5588 0.231179 14.4679 0.257267 14.3955 0.312974C14.3231 0.368681 14.2746 0.44984 14.2598 0.54C14.2512 0.629793 14.2776 0.719439 14.3335 0.790239C14.3894 0.861039 14.4704 0.907524 14.5598 0.92C16.313 1.16637 17.9694 1.8738 19.3598 2.97C20.7378 4.04888 21.7787 5.49919 22.3598 7.15C22.6833 8.05242 22.9047 8.98826 23.0198 9.94C23.105 10.8948 23.105 11.8552 23.0198 12.81C22.9284 13.7518 22.7097 14.6769 22.3698 15.56C22.039 16.4503 21.6061 17.2993 21.0798 18.09C19.9643 19.6853 18.392 20.9054 16.5698 21.59C14.7489 22.3171 12.7832 22.6082 10.8298 22.44C9.74918 22.3472 8.68617 22.1084 7.66976 21.73C6.66221 21.358 5.72546 20.8169 4.89976 20.13C2.82769 18.286 1.48636 15.7595 1.11976 13.01C0.660086 10.2548 1.29917 7.42921 2.89976 5.14C3.7461 3.96467 4.80419 2.95745 6.01976 2.17C7.25186 1.40559 8.64563 0.939858 10.0898 0.81C10.7998 0.74 11.5098 0.68 12.2098 0.68C12.678 0.675086 13.146 0.70517 13.6098 0.77C13.6504 0.780565 13.6928 0.782478 13.7343 0.775616C13.7757 0.768754 13.8152 0.75327 13.8503 0.730165C13.8853 0.70706 13.9152 0.676849 13.9378 0.641488C13.9605 0.606127 13.9755 0.566403 13.9818 0.524887C13.9881 0.483371 13.9857 0.440988 13.9746 0.400481C13.9635 0.359973 13.9441 0.322244 13.9175 0.289734C13.8909 0.257224 13.8578 0.230658 13.8203 0.211755C13.7828 0.192853 13.7417 0.182034 13.6998 0.18C13.2112 0.0856614 12.7167 0.0255154 12.2198 0C11.4898 0 10.7598 0 10.0298 0.09C8.47577 0.228956 6.97414 0.721517 5.63976 1.53C4.31832 2.34355 3.15881 3.39458 2.21976 4.63C0.426281 7.0792 -0.325092 10.1386 0.129762 13.14C0.484758 16.1607 1.92382 18.95 4.17976 20.99C5.10044 21.7708 6.14923 22.3866 7.27976 22.81C8.40046 23.2217 9.57053 23.484 10.7598 23.59C12.8926 23.76 15.0358 23.4313 17.0198 22.63C19.0412 21.8363 20.7694 20.4398 21.9698 18.63C22.5329 17.7668 22.9927 16.8405 23.3398 15.87C23.6886 14.9033 23.9072 13.8944 23.9898 12.87C24.0519 11.8491 24.0184 10.8247 23.8898 9.81Z" fill="var(--fill-0, black)"/>
<path id="Vector_2" d="M6.15976 9.22C6.39907 9.35933 6.66391 9.44922 6.93858 9.48436C7.21326 9.5195 7.49219 9.49917 7.75887 9.42457C8.02555 9.34998 8.27455 9.22263 8.49113 9.05008C8.70771 8.87753 8.88747 8.66327 9.01976 8.42C9.20835 8.01383 9.23691 7.55151 9.09976 7.12522C8.9626 6.69893 8.66981 6.34 8.27976 6.12C8.01425 6.00119 7.72319 5.95084 7.4332 5.97355C7.14321 5.99626 6.86354 6.09131 6.61976 6.25C5.65976 6.81 5.01976 8.43 6.15976 9.22Z" fill="var(--fill-0, black)"/>
<path id="Vector_3" d="M15.7398 9.23C15.9809 9.37994 16.2559 9.46672 16.5394 9.48233C16.8229 9.49794 17.1057 9.44186 17.3618 9.31929C17.6179 9.19672 17.839 9.0116 18.0047 8.78101C18.1704 8.55043 18.2753 8.28183 18.3098 8C18.3807 7.64677 18.3375 7.28014 18.1865 6.95302C18.0356 6.62591 17.7846 6.35521 17.4698 6.18C15.7598 5.45 14.0798 7.31 15.1198 8.71C15.2824 8.92991 15.4949 9.10812 15.7398 9.23Z" fill="var(--fill-0, black)"/>
<path id="Vector_4" d="M9.34976 18.33C8.73545 18.0755 8.16771 17.7207 7.66976 17.28C7.0359 16.7139 6.54573 16.0052 6.23972 15.2123C5.9337 14.4194 5.82061 13.5652 5.90976 12.72C5.91826 12.6419 5.89578 12.5636 5.84717 12.5019C5.79855 12.4402 5.72768 12.4 5.64976 12.39C5.61031 12.3844 5.57014 12.3867 5.53159 12.3968C5.49304 12.4068 5.45689 12.4245 5.42524 12.4487C5.39358 12.4729 5.36707 12.5032 5.34725 12.5377C5.32742 12.5723 5.31468 12.6105 5.30976 12.65C5.14947 13.6089 5.22107 14.5922 5.51856 15.5177C5.81605 16.4432 6.3308 17.2841 7.01976 17.97C7.56861 18.5381 8.21569 19.0022 8.92976 19.34C10.014 19.8278 11.2057 20.0275 12.3898 19.92C14.3083 19.7044 16.0842 18.8023 17.3898 17.38C18.0365 16.6931 18.5389 15.8833 18.8669 14.9987C19.195 14.114 19.3422 13.1726 19.2998 12.23C19.2998 12.1849 19.2907 12.1403 19.2729 12.0989C19.2551 12.0575 19.2289 12.0202 19.1961 11.9893C19.1634 11.9584 19.1246 11.9345 19.0822 11.9191C19.0398 11.9038 18.9948 11.8973 18.9498 11.9C18.9051 11.9013 18.8611 11.9114 18.8204 11.9297C18.7796 11.948 18.7429 11.9741 18.7122 12.0066C18.6816 12.0391 18.6576 12.0773 18.6418 12.1191C18.6259 12.1609 18.6184 12.2053 18.6198 12.25C18.6122 13.0846 18.4375 13.9093 18.106 14.6753C17.7745 15.4413 17.293 16.1331 16.6898 16.71C15.5145 17.9211 13.9413 18.6669 12.2598 18.81C11.2649 18.8946 10.2647 18.7296 9.34976 18.33Z" fill="var(--fill-0, black)"/>
</g>
</svg>
